<?xml version="1.0" encoding="utf-8"?>
<!-- Generator: Adobe Illustrator 27.7.0, SVG Export Plug-In . SVG Version: 6.00 Build 0)  -->
<svg version="1.1" id="Layer_1" xmlns="http://www.w3.org/2000/svg" xmlns:xlink="http://www.w3.org/1999/xlink" x="0px" y="0px"
	 viewBox="0 0 30 30" style="enable-background:new 0 0 30 30;" xml:space="preserve">
<style type="text/css">
	.st0{fill-rule:evenodd;clip-rule:evenodd;fill:#FFFFFF;}
	.st1{fill:#FFFFFF;}
</style>
<g>
	<g>
		<path class="st0" d="M-49.87,21.42V2.84h-6.17v18.57H-49.87L-49.87,21.42z M-52.95,0.31c2.15,0,3.49-1.43,3.49-3.21
			c-0.04-1.82-1.34-3.21-3.45-3.21c-2.11,0-3.49,1.39-3.49,3.21c0,1.78,1.34,3.21,3.41,3.21H-52.95L-52.95,0.31z"/>
		<path class="st0" d="M-46.45,21.42h6.17V11.05c0-0.55,0.04-1.11,0.2-1.51c0.45-1.11,1.46-2.26,3.17-2.26c2.23,0,3.13,1.7,3.13,4.2
			v9.94h6.17V10.77c0-5.7-3.05-8.36-7.11-8.36c-3.33,0-4.79,1.86-5.6,3.13h0.04V2.84h-6.17C-46.37,4.59-46.45,21.42-46.45,21.42
			L-46.45,21.42z"/>
	</g>
</g>
<g>
	<path class="st1" d="M29.4,15.38c0-7.95-6.45-14.4-14.4-14.4S0.6,7.43,0.6,15.38c0,6.31,4.06,11.68,9.71,13.62
		c0.34-0.25,0.74-0.56,0.74-1.07c0-0.79-0.02-2.83-0.02-2.83s-0.63,0.11-1.52,0.11c-2.25,0-2.96-1.43-3.3-2.22
		c-0.44-1.04-1.01-1.53-1.62-1.92c-0.37-0.24-0.46-0.52-0.03-0.6c1.99-0.37,2.5,2.24,3.83,2.66c0.95,0.3,2.17,0.17,2.77-0.22
		c0.08-0.8,0.66-1.49,1.14-1.85c-3.38-0.32-5.38-1.49-6.42-3.37l-0.11-0.21l-0.26-0.6l-0.08-0.21c-0.33-0.95-0.47-2.04-0.47-3.26
		c0-2.16,0.68-2.98,1.59-4.13C5.87,6.8,6.82,5.11,6.82,5.11s1.46-0.3,4.23,1.67c1.5-0.64,5.49-0.69,7.39-0.14
		c1.16-0.76,3.28-1.85,4.14-1.54c0.23,0.37,0.73,1.45,0.3,3.83c0.29,0.52,1.8,1.63,1.81,4.77c-0.02,1.16-0.15,2.14-0.37,2.96
		l-0.12,0.42c0,0-0.07,0.2-0.15,0.39l-0.09,0.21c-1,2.19-3.06,3.01-6.38,3.35c1.08,0.67,1.39,1.52,1.39,3.81s-0.03,2.6-0.02,3.12
		c0.01,0.47,0.38,0.8,0.71,1.05C25.32,27.09,29.4,21.71,29.4,15.38z"/>
</g>
</svg>
